<svg width="139" height="27" viewBox="0 0 139 27" fill="none" xmlns="http://www.w3.org/2000/svg">
<path d="M55.6452 16.268V16.2258C55.6452 13.856 56.0922 12.1608 56.9693 11.1235C57.6524 10.4066 58.6139 10.0187 59.6006 10.0355C60.7813 10.0355 61.6837 10.3982 62.3331 11.115C62.6367 11.4608 62.8813 11.8572 63.0753 12.2704H68.2367C67.874 10.8367 67.2246 9.49577 66.3222 8.3235C64.703 6.47653 62.4174 5.54883 59.4572 5.54883C56.6573 5.54883 54.473 6.50183 52.8959 8.40783C51.3694 10.2548 50.6104 12.8439 50.6104 16.1415C50.6104 16.1836 50.6104 16.3439 50.6104 16.3861C50.6104 19.6836 51.3694 22.2643 52.8959 24.1197C54.473 26.0341 56.6573 26.9871 59.4572 26.9787C62.409 26.9787 64.6945 26.051 66.3222 24.204C67.2246 23.0318 67.874 21.6908 68.2367 20.2571H64.0873C63.5307 20.2571 62.9825 20.5185 62.6705 20.9824C62.5693 21.1342 62.4512 21.2776 62.3331 21.4209C61.6922 22.1378 60.7898 22.5004 59.6006 22.5004C58.6054 22.5257 57.6524 22.1294 56.9693 21.4125C56.0838 20.3836 55.6452 18.68 55.6452 16.3102V16.268Z" fill="#221F1F"/>
<path d="M83.7713 6.12256C82.3039 5.49847 80.6677 5.3804 79.1328 5.80208C77.522 6.20689 76.1557 7.26953 75.3714 8.73699V1.77923C75.3714 0.80093 74.5787 0.0166016 73.6088 0.0166016H70.345V26.6163H75.3546V16.0152C75.3546 14.2104 75.7172 12.7936 76.4594 11.7647C77.1847 10.7442 78.3822 10.1623 79.6304 10.2213C80.8449 10.1876 81.9918 10.7948 82.6496 11.8237L82.6581 11.8321C83.0629 12.4309 83.3496 13.0972 83.493 13.8056C83.6195 14.5056 83.6786 15.214 83.6786 15.9309V26.5994H88.6291V14.6237C88.6291 12.2538 88.1652 10.3984 87.2375 9.05746C86.3689 7.78398 85.1713 6.76351 83.7713 6.12256Z" fill="#221F1F"/>
<path d="M46.5706 8.35794C44.9429 6.50254 42.6574 5.56641 39.7141 5.56641C36.9141 5.56641 34.7214 6.51941 33.1527 8.42541C31.6346 10.2724 30.8672 12.8615 30.8672 16.1591C30.8672 19.6084 31.6515 22.265 33.2202 24.1204C34.7973 26.018 36.9731 26.9794 39.7815 26.9794C42.0924 26.9794 43.9984 26.3385 45.5249 25.1999C47.0513 24.0614 48.0802 22.4168 48.62 20.2578H44.6815C44.0743 20.2578 43.5008 20.553 43.1466 21.0421C42.6743 21.6915 41.755 22.5012 40.0936 22.5012C38.8117 22.5012 37.8502 22.0795 37.2009 21.253C36.5093 20.4855 36.1466 19.3048 36.096 17.7024H48.8308C48.8393 13.5952 48.1562 10.2555 46.5706 8.35794ZM36.1045 14.2193C36.1551 12.8868 36.5177 11.8579 37.2093 11.1326C37.9008 10.4157 38.8623 10.0194 39.8574 10.0531C41.0466 10.0531 41.9996 10.4664 42.5899 11.1326C43.1803 11.8073 43.5261 12.8278 43.6273 14.2193H36.1045Z" fill="#221F1F"/>
<path d="M34.0125 1.77923C34.0125 0.80093 33.2197 0.0166016 32.2498 0.0166016H15.1042V4.72257H21.9355V26.591H27.1728V4.72257H34.0125V1.77923Z" fill="#221F1F"/>
<path d="M121.571 6.58627C120.373 6.91518 119.252 7.48867 118.29 8.28143C117.261 9.16697 116.46 10.2971 115.971 11.5621C115.364 13.1729 115.069 14.8934 115.119 16.6139V26.5909L120.281 26.5993V16.0066C120.281 14.4549 120.618 13.3248 121.31 12.6079C122.001 11.891 123.055 11.52 124.481 11.52H126.176V6.03809H125.442C124.135 6.03809 122.828 6.22363 121.571 6.58627Z" fill="#221F1F"/>
<path d="M136.996 11.5208C137.975 11.5208 138.759 10.728 138.759 9.75814V6.04734L132.864 6.05578V1.77149C132.864 0.793184 132.071 0.000422093 131.093 0.00885573L127.702 0.0172894V16.4207C127.652 18.1412 127.947 19.8616 128.554 21.4725C129.052 22.7375 129.844 23.8676 130.873 24.7532C131.835 25.5459 132.948 26.1194 134.154 26.4483C135.411 26.8194 136.718 26.9965 138.025 26.9965H138.759V21.5231H137.064C135.638 21.5231 134.584 21.1604 133.893 20.4351C133.201 19.7183 132.864 18.5882 132.864 17.0364V11.5292H136.996V11.5208Z" fill="#221F1F"/>
<path d="M100.546 0.00878906C99.5254 0.00878906 98.6146 0.658179 98.2941 1.62805L89.8857 26.5916H95.4182L97.0459 21.1013H106.93L108.625 26.5916H114.149L104.923 0.00878906H100.546ZM98.4375 16.6146L101.971 5.33042L105.505 16.6146H98.4375Z" fill="#221F1F"/>
<path d="M7.55688 26.5747H12.9122V6.95801H7.55688V26.5747Z" fill="#221F1F"/>
<path d="M0 8.72907V12.6591H5.33849V6.95801H1.77106C0.792762 6.95801 0 7.75077 0 8.72907Z" fill="#221F1F"/>
<path d="M12.8954 0H9.62313H9.32795C8.84723 0 8.41712 0.193974 8.09664 0.497585C8.07977 0.514452 8.07134 0.522886 8.05447 0.539753C7.74242 0.860231 7.55688 1.29035 7.55688 1.77106V2.07468V4.71441H12.8954V0Z" fill="#221F1F"/>
<path d="M5.33849 20.8818H0V26.5745H5.33849V20.8818Z" fill="#221F1F"/>
</svg>
